<svg width="34" height="22" viewBox="0 0 34 22" fill="none" xmlns="http://www.w3.org/2000/svg">
<g clip-path="url(#clip0_1294_2490)">
<path d="M0.0288086 2.76611C0.0288086 1.2503 1.27174 0.0214844 2.80498 0.0214844H30.5667C32.1 0.0214844 33.3429 1.2503 33.3429 2.76611V19.2339C33.3429 20.7497 32.1 21.9785 30.5667 21.9785H2.80498C1.27174 21.9785 0.0288086 20.7497 0.0288086 19.2339V2.76611Z" fill="#D8E3F3"/>
<path d="M28.6997 6.90424H26.9544C26.4268 6.90424 26.0209 7.06474 25.7774 7.58638L22.4492 15.09H24.8033C24.8033 15.09 25.2092 14.0868 25.2903 13.8461C25.5339 13.8461 27.8473 13.8461 28.172 13.8461C28.2532 14.1269 28.4561 15.0498 28.4561 15.0498H30.5667L28.6997 6.90424ZM25.9397 12.1608C26.1427 11.6792 26.8327 9.87357 26.8327 9.87357C26.8327 9.91369 27.0356 9.39206 27.1168 9.11117L27.2791 9.83344C27.2791 9.83344 27.7256 11.7996 27.8067 12.2009H25.9397V12.1608Z" fill="#3362AB"/>
<path d="M22.6111 12.4035C22.6111 14.0888 21.0688 15.2123 18.6741 15.2123C17.6594 15.2123 16.6854 15.0117 16.1577 14.7709L16.4824 12.9251L16.7665 13.0455C17.4971 13.3665 17.9841 13.4869 18.8771 13.4869C19.5265 13.4869 20.2165 13.2461 20.2165 12.6844C20.2165 12.3232 19.9323 12.0825 19.0394 11.6812C18.1871 11.28 17.0506 10.6379 17.0506 9.47428C17.0506 7.86923 18.6335 6.78583 20.8658 6.78583C21.7182 6.78583 22.4488 6.94633 22.8952 7.14696L22.5705 8.91251L22.4082 8.75201C22.0023 8.5915 21.4747 8.431 20.7035 8.431C19.8512 8.47112 19.4453 8.83226 19.4453 9.15327C19.4453 9.5144 19.9323 9.79529 20.7035 10.1564C22.0023 10.7583 22.6111 11.4405 22.6111 12.4035Z" fill="#3362AB"/>
<path d="M2.80469 6.98582L2.84527 6.82532H6.33579C6.82283 6.82532 7.18812 6.98582 7.30988 7.50746L8.08104 11.1188C7.30988 9.19276 5.52404 7.62784 2.80469 6.98582Z" fill="#F9B50B"/>
<path d="M12.9922 6.90585L9.46113 15.0515H7.06648L5.03711 8.23001C6.49825 9.15291 7.71587 10.5975 8.16233 11.6006L8.40586 12.4433L10.5976 6.86572H12.9922V6.90585Z" fill="#3362AB"/>
<path d="M13.9259 6.86572H16.1582L14.7377 15.0515H12.5054L13.9259 6.86572Z" fill="#3362AB"/>
</g>
<defs>
<clipPath id="clip0_1294_2490">
<rect width="33.3141" height="21.957" fill="white" transform="translate(0.0288086 0.0214844)"/>
</clipPath>
</defs>
</svg>
