<?xml version="1.0" standalone="no"?>
<!DOCTYPE svg PUBLIC "-//W3C//DTD SVG 20010904//EN"
 "http://www.w3.org/TR/2001/REC-SVG-20010904/DTD/svg10.dtd">
<svg version="1.0" xmlns="http://www.w3.org/2000/svg"
 width="512.000000pt" height="512.000000pt" viewBox="0 0 512.000000 512.000000"
 preserveAspectRatio="xMidYMid meet">
<metadata>
Created by potrace 1.16, written by Peter Selinger 2001-2019
</metadata>
<g transform="translate(0.000000,512.000000) scale(0.100000,-0.100000)"
fill="#000000" stroke="none">
<path d="M2321 3529 c-51 -15 -103 -52 -149 -104 -74 -84 -72 -67 -72 -719
l-1 -581 -81 -60 c-44 -33 -100 -82 -125 -110 -54 -59 -106 -160 -122 -233
-23 -110 -5 -254 43 -349 14 -28 129 -179 255 -336 l231 -287 0 -120 c0 -95 4
-131 20 -172 25 -67 71 -113 137 -138 51 -19 78 -20 628 -20 550 0 577 1 628
20 57 21 103 63 133 120 15 28 19 64 22 169 l4 135 35 45 c39 52 94 160 123
247 45 130 50 199 50 700 0 459 -1 475 -21 531 -29 78 -104 153 -182 182 -62
22 -158 28 -214 12 -31 -9 -32 -8 -58 44 -29 60 -83 113 -147 146 -53 27 -176
37 -244 20 -42 -11 -49 -10 -57 5 -24 42 -84 96 -135 121 -51 25 -68 28 -159
28 l-101 0 -4 235 c-3 230 -4 236 -30 292 -31 67 -91 128 -156 159 -53 26
-192 36 -251 18z m181 -238 l33 -29 5 -695 5 -695 24 -26 c32 -34 84 -43 128
-22 60 29 63 47 63 396 0 337 2 354 55 378 59 27 125 8 150 -43 12 -28 15 -84
15 -348 0 -310 0 -314 23 -348 43 -65 137 -62 178 5 17 28 19 54 19 273 0 166
4 250 12 268 22 49 96 69 153 43 51 -23 55 -46 55 -310 0 -220 2 -246 19 -274
41 -67 135 -70 178 -5 21 31 23 45 23 168 0 149 11 191 56 212 58 26 132 3
153 -47 9 -21 11 -151 9 -503 -3 -464 -4 -475 -27 -544 -30 -92 -72 -175 -130
-255 l-46 -65 -3 -140 c-2 -77 -8 -146 -14 -152 -15 -18 -1088 -19 -1106 -1
-8 8 -12 56 -12 151 0 81 -5 147 -11 159 -6 11 -117 151 -246 312 -130 160
-245 311 -256 336 -15 33 -21 66 -21 120 0 66 4 82 32 135 18 33 44 68 57 78
l25 18 0 -125 c0 -118 1 -126 25 -154 41 -49 113 -51 160 -4 l25 25 0 811 c0
538 4 824 11 849 21 76 120 102 181 48z"/>
</g>
</svg>
