<svg width="35" height="22" viewBox="0 0 35 22" fill="none" xmlns="http://www.w3.org/2000/svg">
<g clip-path="url(#clip0_1294_2513)">
<path d="M0.656738 2.76611C0.656738 1.2503 1.92792 0.0214844 3.49601 0.0214844H31.8887C33.4568 0.0214844 34.728 1.2503 34.728 2.76611V19.2339C34.728 20.7497 33.4568 21.9785 31.8887 21.9785H3.49601C1.92792 21.9785 0.656738 20.7497 0.656738 19.2339V2.76611Z" fill="#FCE0CF"/>
<path d="M20.9435 10.9855C20.946 10.3956 20.7172 9.80483 20.2568 9.35965C19.7953 8.91355 19.1826 8.69256 18.5711 8.69611C18.5682 8.69611 18.5654 8.69592 18.5623 8.69592C17.2344 8.69592 16.1812 9.71386 16.1812 10.9979C16.1812 12.2692 17.2474 13.2996 18.5623 13.2996C19.8906 13.2996 20.9438 12.2815 20.9438 10.9979C20.9438 10.9936 20.9435 10.9897 20.9435 10.9855Z" fill="#F26E21"/>
<path d="M15.7386 11.9722C15.3827 12.3166 15.0542 12.4512 14.7004 12.4585C13.8384 12.451 13.2046 11.8339 13.2046 10.9542C13.2046 10.5113 13.3781 10.1483 13.6529 9.83827C13.9106 9.60178 14.2426 9.44898 14.6243 9.44898C15.0364 9.44898 15.3571 9.58176 15.7232 9.93591V8.91779C15.3571 8.7408 15.0363 8.65222 14.6243 8.65222C14.0422 8.69244 13.4933 8.91981 13.0723 9.27683C12.951 9.38237 12.8347 9.49887 12.7361 9.63221C12.4285 10.0175 12.2427 10.4893 12.2427 10.9986C12.2427 12.2822 13.2963 13.256 14.6242 13.256C14.6307 13.256 14.6371 13.2555 14.6434 13.2554C14.6523 13.2555 14.6611 13.256 14.67 13.256C15.0363 13.256 15.3571 13.1677 15.7692 12.9906L15.7386 11.9722C15.7231 11.9872 15.7539 12.001 15.7386 12.0152V11.9722Z" fill="#2B2B2B"/>
<path d="M23.9496 9.28665L22.9125 11.7514L21.7218 8.82953H20.7603L22.6377 13.3006H23.1414L25.1106 8.82953H24.1491L23.9496 9.28665Z" fill="#2B2B2B"/>
<path d="M25.478 10.7774V13.168H27.951H27.9966V12.4595H27.2182H26.3939V11.6628V11.2646H27.951V10.5117H26.3939V9.58221H27.9966V8.82953H25.478V10.7774Z" fill="#2B2B2B"/>
<path d="M4.77858 8.83038H3.49609V13.1689H4.77851C5.46532 13.1689 5.96898 12.9916 6.38113 12.6818C6.88478 12.2833 7.20548 11.6638 7.20548 10.9998C7.20555 9.71572 6.2437 8.83038 4.77858 8.83038ZM5.83174 12.1064C5.55696 12.3277 5.1906 12.4603 4.64103 12.4603H4.36624V9.583H4.59517C5.14475 9.583 5.51111 9.67152 5.78596 9.93703C6.10647 10.2025 6.28974 10.6011 6.28974 10.9997C6.33553 11.3981 6.15238 11.8406 5.83174 12.1064Z" fill="#2B2B2B"/>
<path d="M8.48776 8.82928H7.61768V13.1676H8.48776V8.82928Z" fill="#2B2B2B"/>
<path d="M10.6859 10.5122C10.1365 10.3352 9.99894 10.2023 9.99894 9.98105C9.99894 9.71543 10.2737 9.49412 10.6401 9.49412C10.9149 9.49412 11.1438 9.58271 11.3728 9.84833L11.8309 9.27288C11.4644 8.96287 11.0066 8.78601 10.5028 8.78601C9.72415 8.78601 9.083 9.31726 9.083 10.0253C9.083 10.6452 9.35804 10.9108 10.1822 11.2207C10.5486 11.3533 10.686 11.3977 10.7778 11.4862C10.9606 11.5746 11.0524 11.7519 11.0524 11.9287C11.0524 12.2829 10.7778 12.5486 10.3654 12.5486C9.95283 12.5486 9.58679 12.3273 9.40358 11.9731L8.854 12.5044C9.26634 13.0798 9.77006 13.3454 10.4112 13.3454C11.327 13.3454 11.9678 12.7699 11.9678 11.9287C11.968 11.1763 11.6934 10.8665 10.6859 10.5122Z" fill="#2B2B2B"/>
<path d="M30.47 11.3528C31.1567 11.2202 31.5232 10.7773 31.5232 10.1135C31.5232 9.31677 30.9277 8.82953 29.9204 8.82953H28.5923V13.168H29.4624V11.4413H29.5999L30.836 13.168H31.8895L30.47 11.3528ZM29.737 10.8215H29.4624V9.49363H29.737C30.2866 9.49363 30.6073 9.71487 30.6073 10.1578C30.6073 10.6003 30.2867 10.8215 29.737 10.8215Z" fill="#2B2B2B"/>
</g>
<defs>
<clipPath id="clip0_1294_2513">
<rect width="34.0712" height="21.957" fill="white" transform="translate(0.656738 0.0214844)"/>
</clipPath>
</defs>
</svg>
